<?xml version="1.0" encoding="utf-8"?>
<!-- Generator: Adobe Illustrator 16.0.0, SVG Export Plug-In . SVG Version: 6.00 Build 0)  -->
<!DOCTYPE svg PUBLIC "-//W3C//DTD SVG 1.1//EN" "http://www.w3.org/Graphics/SVG/1.1/DTD/svg11.dtd">
<svg version="1.1" id="Layer_1" xmlns="http://www.w3.org/2000/svg" xmlns:xlink="http://www.w3.org/1999/xlink" x="0px" y="0px"
	 width="24px" height="22px" viewBox="0 1 24 22" enable-background="new 0 1 24 22" xml:space="preserve">
<g>
	<linearGradient id="SVGID_1_" gradientUnits="userSpaceOnUse" x1="12.0005" y1="22.75" x2="12.0005" y2="1.354">
		<stop  offset="0" style="stop-color:#3333CC"/>
		<stop  offset="0.0859" style="stop-color:#3333CC"/>
		<stop  offset="0.1" style="stop-color:#3333CC"/>
		<stop  offset="0.1859" style="stop-color:#3333CC"/>
		<stop  offset="0.2" style="stop-color:#3333CC"/>
		<stop  offset="0.2051" style="stop-color:#3456A9"/>
		<stop  offset="0.2108" style="stop-color:#35758A"/>
		<stop  offset="0.2173" style="stop-color:#36916E"/>
		<stop  offset="0.2247" style="stop-color:#37A758"/>
		<stop  offset="0.2332" style="stop-color:#37B847"/>
		<stop  offset="0.2438" style="stop-color:#38C33C"/>
		<stop  offset="0.2587" style="stop-color:#38CA35"/>
		<stop  offset="0.3" style="stop-color:#38CC33"/>
		<stop  offset="0.3416" style="stop-color:#3ACC33"/>
		<stop  offset="0.3565" style="stop-color:#41CC33"/>
		<stop  offset="0.3672" style="stop-color:#4CCC33"/>
		<stop  offset="0.3758" style="stop-color:#5DCC33"/>
		<stop  offset="0.3832" style="stop-color:#73CC33"/>
		<stop  offset="0.3898" style="stop-color:#8FCC33"/>
		<stop  offset="0.3956" style="stop-color:#AECC33"/>
		<stop  offset="0.4" style="stop-color:#CCCC33"/>
		<stop  offset="0.4209" style="stop-color:#CCC833"/>
		<stop  offset="0.5" style="stop-color:#CCC633"/>
		<stop  offset="0.5416" style="stop-color:#CCC433"/>
		<stop  offset="0.5566" style="stop-color:#CCBD33"/>
		<stop  offset="0.5673" style="stop-color:#CCB233"/>
		<stop  offset="0.5759" style="stop-color:#CCA133"/>
		<stop  offset="0.5834" style="stop-color:#CC8B33"/>
		<stop  offset="0.5899" style="stop-color:#CC6F33"/>
		<stop  offset="0.5957" style="stop-color:#CC5033"/>
		<stop  offset="0.6" style="stop-color:#CC3333"/>
		<stop  offset="0.6179" style="stop-color:#CC3336"/>
		<stop  offset="0.7" style="stop-color:#CC3338"/>
		<stop  offset="0.7416" style="stop-color:#CC333A"/>
		<stop  offset="0.7565" style="stop-color:#CC3341"/>
		<stop  offset="0.7672" style="stop-color:#CC334C"/>
		<stop  offset="0.7758" style="stop-color:#CC335D"/>
		<stop  offset="0.7832" style="stop-color:#CC3373"/>
		<stop  offset="0.7898" style="stop-color:#CC338F"/>
		<stop  offset="0.7956" style="stop-color:#CC33AE"/>
		<stop  offset="0.8" style="stop-color:#CC33CC"/>
		<stop  offset="0.8141" style="stop-color:#CC33CC"/>
		<stop  offset="0.9" style="stop-color:#CC33CC"/>
	</linearGradient>
	<path fill="url(#SVGID_1_)" d="M15.25,22.75v-6h-6.5v6h-5.5v-10H0.604L12,1.354L23.396,12.75H20.75v10H15.25z M17.25,3.989V2.25
		h2.5v4.239L17.25,3.989z"/>
	<path d="M12,1.707L22.793,12.5H21h-0.5V13v9.5h-5V17v-0.5H15H9H8.5V17v5.5h-5V13v-0.5H3H1.207L12,1.707 M19.5,2.5v3.386l-2-2V2.5
		H19.5 M12,1L0,13h3v10h6v-6h6v6h6V13h3L12,1L12,1z M20,2h-3v2.093l3,3V2L20,2z"/>
</g>
</svg>
