<?xml version="1.0" encoding="utf-8"?>
<!-- Generator: Adobe Illustrator 16.0.0, SVG Export Plug-In . SVG Version: 6.00 Build 0)  -->
<!DOCTYPE svg PUBLIC "-//W3C//DTD SVG 1.1//EN" "http://www.w3.org/Graphics/SVG/1.1/DTD/svg11.dtd">
<svg version="1.1"
	 id="svg153" sodipodi:docname="Loupe_light.svg" sodipodi:version="0.32pre" inkscape:version="0.47 r22583" xmlns:inkscape="http://www.inkscape.org/namespaces/inkscape" xmlns:sodipodi="http://sodipodi.sourceforge.net/DTD/sodipodi-0.dtd" xmlns:svg="http://www.w3.org/2000/svg" xmlns:dc="http://purl.org/dc/elements/1.1/" xmlns:rdf="http://www.w3.org/1999/02/22-rdf-syntax-ns#" xmlns:cc="http://creativecommons.org/ns#"
	 xmlns="http://www.w3.org/2000/svg" xmlns:xlink="http://www.w3.org/1999/xlink" x="0px" y="0px" width="57.531px"
	 height="56.564px" viewBox="0 0 57.531 56.564" enable-background="new 0 0 57.531 56.564" xml:space="preserve">
<defs>
	
	
		<inkscape:perspective  id="perspective29" inkscape:persp3d-origin="30 : 20 : 1" inkscape:vp_z="60 : 30 : 1" inkscape:vp_y="0 : 1000 : 0" inkscape:vp_x="0 : 30 : 1" sodipodi:type="inkscape:persp3d">
		</inkscape:perspective>
</defs>
<sodipodi:namedview  id="base" inkscape:snap-global="false" inkscape:window-width="1280" inkscape:window-height="949" inkscape:window-maximized="1" inkscape:window-y="24" inkscape:current-layer="svg153" inkscape:window-x="0" inkscape:cy="27.854121" inkscape:cx="42.032502" showgrid="false" inkscape:zoom="10.342085">
	</sodipodi:namedview>
<path id="path3604" sodipodi:cx="2.272269" sodipodi:rx="14.358807" sodipodi:ry="13.730307" sodipodi:type="arc" sodipodi:cy="26.737848" fill="#FFFFFF" d="
	M36.26,19.531c0,8.545-7.144,15.471-15.955,15.471c-8.811,0-15.954-6.926-15.954-15.471c0-8.544,7.144-15.471,15.954-15.471
	C29.116,4.061,36.26,10.988,36.26,19.531z"/>
<path id="path170" fill="#0066CC" d="M21.615,23.553l16.163,15.555l1.54-1.48L23.154,22.072L21.615,23.553z"/>
<path id="path171" fill="#0066CC" d="M34.699,36.516c-0.851,0.818-0.851,2.145,0,2.962l16.548,15.927
	c0.851,0.817,2.229,0.817,3.079,0l1.925-1.853c0.85-0.818,0.85-2.145,0-2.963L39.702,34.664c-0.851-0.818-2.229-0.818-3.079,0
	L34.699,36.516z"/>
<linearGradient id="path178_1_" gradientUnits="userSpaceOnUse" x1="905.6331" y1="-926.2639" x2="916.3386" y2="-912.8488" gradientTransform="matrix(0.3394 0.0039 0.0041 -0.3266 -260.1063 -258.6294)">
	<stop  offset="0" style="stop-color:#0066CC"/>
	<stop  offset="1" style="stop-color:#82ABFF"/>
</linearGradient>
<path id="path178" fill="url(#path178_1_)" d="M39.053,35.329c-0.419-0.413-1.11-0.421-1.539-0.018l-1.947,1.83
	c-0.43,0.403-0.438,1.068-0.019,1.48l16.349,16.115c0.419,0.414,1.11,0.422,1.539,0.019l1.947-1.829
	c0.43-0.403,0.438-1.068,0.019-1.481L39.053,35.329z"/>
<path id="path179" fill="#0066CC" d="M0.772,19.495c0,10.402,8.762,18.835,19.57,18.835c10.81,0,19.572-8.433,19.572-18.835
	c0-10.401-8.763-18.834-19.572-18.834C9.534,0.661,0.772,9.094,0.772,19.495z"/>
<path id="path180" opacity="0.6067" fill="#FFFFFF" enable-background="new    " d="M2.159,19.495
	c0,9.649,8.157,17.499,18.184,17.499s18.184-7.85,18.184-17.499c0-9.648-8.157-17.499-18.184-17.499S2.159,9.847,2.159,19.495z"/>
<path id="path181" opacity="0.3902" fill="#C1FFFF" enable-background="new    " d="M2.703,19.758c0-9.649,8.157-17.5,18.184-17.5
	c2.774,0,5.405,0.604,7.76,1.678c-2.492-1.236-5.313-1.938-8.305-1.938c-10.025,0-18.184,7.85-18.184,17.499
	c0,6.979,4.269,13.015,10.425,15.821C6.723,32.409,2.703,26.529,2.703,19.758L2.703,19.758z"/>
<path id="path182" fill="#0066CC" d="M3.792,19.495c0,8.783,7.425,15.928,16.551,15.928s16.551-7.145,16.551-15.928
	c0-8.782-7.425-15.928-16.551-15.928S3.792,10.713,3.792,19.495z"/>
<linearGradient id="path189_1_" gradientUnits="userSpaceOnUse" x1="782.0715" y1="-854.5906" x2="873.1946" y2="-854.5906" gradientTransform="matrix(0.3394 0 0 -0.3266 -260.5429 -259.6228)">
	<stop  offset="0" style="stop-color:#FFFFFF"/>
	<stop  offset="1" style="stop-color:#B7DFF2"/>
</linearGradient>
<path id="path189" fill="url(#path189_1_)" d="M4.88,19.495c0,8.205,6.937,14.881,15.463,14.881s15.463-6.675,15.463-14.881
	c0-8.204-6.937-14.88-15.463-14.88S4.88,11.291,4.88,19.495z"/>
<path id="path190" fill="#FFFFFF" d="M5.559,19.495c0,2.09,0.475,4.074,1.319,5.863c0.557-0.188,1.079-0.456,1.546-0.842
	c7.496-4.88,13.704-12.239,21.32-15.993c-2.558-2.032-5.834-3.255-9.402-3.255C12.191,5.269,5.559,11.651,5.559,19.495z"/>
</svg>
