<?xml version="1.0" encoding="utf-8"?>
<!-- Generator: Adobe Illustrator 16.0.0, SVG Export Plug-In . SVG Version: 6.00 Build 0)  -->
<!DOCTYPE svg PUBLIC "-//W3C//DTD SVG 1.1//EN" "http://www.w3.org/Graphics/SVG/1.1/DTD/svg11.dtd">
<svg version="1.1" id="Layer_1" xmlns:sketch="http://www.bohemiancoding.com/sketch/ns"
	 xmlns="http://www.w3.org/2000/svg" xmlns:xlink="http://www.w3.org/1999/xlink" x="0px" y="0px" width="20px" height="20px"
	 viewBox="0 0 20 20" enable-background="new 0 0 20 20" xml:space="preserve">
<title></title>
<desc></desc>
<g id="Shape">
	<linearGradient id="SVGID_1_" gradientUnits="userSpaceOnUse" x1="10.0005" y1="19.75" x2="10.0005" y2="0.2505">
		<stop  offset="0" style="stop-color:#3333CC"/>
		<stop  offset="0.0859" style="stop-color:#3333CC"/>
		<stop  offset="0.1" style="stop-color:#3333CC"/>
		<stop  offset="0.1859" style="stop-color:#3333CC"/>
		<stop  offset="0.2" style="stop-color:#3333CC"/>
		<stop  offset="0.2051" style="stop-color:#3456A9"/>
		<stop  offset="0.2108" style="stop-color:#35758A"/>
		<stop  offset="0.2173" style="stop-color:#36916E"/>
		<stop  offset="0.2247" style="stop-color:#37A758"/>
		<stop  offset="0.2332" style="stop-color:#37B847"/>
		<stop  offset="0.2438" style="stop-color:#38C33C"/>
		<stop  offset="0.2587" style="stop-color:#38CA35"/>
		<stop  offset="0.3" style="stop-color:#38CC33"/>
		<stop  offset="0.3416" style="stop-color:#3ACC33"/>
		<stop  offset="0.3565" style="stop-color:#41CC33"/>
		<stop  offset="0.3672" style="stop-color:#4CCC33"/>
		<stop  offset="0.3758" style="stop-color:#5DCC33"/>
		<stop  offset="0.3832" style="stop-color:#73CC33"/>
		<stop  offset="0.3898" style="stop-color:#8FCC33"/>
		<stop  offset="0.3956" style="stop-color:#AECC33"/>
		<stop  offset="0.4" style="stop-color:#CCCC33"/>
		<stop  offset="0.4209" style="stop-color:#CCC833"/>
		<stop  offset="0.5" style="stop-color:#CCC633"/>
		<stop  offset="0.5416" style="stop-color:#CCC433"/>
		<stop  offset="0.5566" style="stop-color:#CCBD33"/>
		<stop  offset="0.5673" style="stop-color:#CCB233"/>
		<stop  offset="0.5759" style="stop-color:#CCA133"/>
		<stop  offset="0.5834" style="stop-color:#CC8B33"/>
		<stop  offset="0.5899" style="stop-color:#CC6F33"/>
		<stop  offset="0.5957" style="stop-color:#CC5033"/>
		<stop  offset="0.6" style="stop-color:#CC3333"/>
		<stop  offset="0.6179" style="stop-color:#CC3336"/>
		<stop  offset="0.7" style="stop-color:#CC3338"/>
		<stop  offset="0.7416" style="stop-color:#CC333A"/>
		<stop  offset="0.7565" style="stop-color:#CC3341"/>
		<stop  offset="0.7672" style="stop-color:#CC334C"/>
		<stop  offset="0.7758" style="stop-color:#CC335D"/>
		<stop  offset="0.7832" style="stop-color:#CC3373"/>
		<stop  offset="0.7898" style="stop-color:#CC338F"/>
		<stop  offset="0.7956" style="stop-color:#CC33AE"/>
		<stop  offset="0.8" style="stop-color:#CC33CC"/>
		<stop  offset="0.8141" style="stop-color:#CC33CC"/>
		<stop  offset="0.9" style="stop-color:#CC33CC"/>
	</linearGradient>
	<path fill="url(#SVGID_1_)" d="M16,19.75c-0.965,0-1.75-0.785-1.75-1.75s0.785-1.75,1.75-1.75s1.75,0.785,1.75,1.75
		S16.965,19.75,16,19.75z M6,19.75c-0.965,0-1.75-0.785-1.75-1.75S5.035,16.25,6,16.25S7.75,17.035,7.75,18S6.965,19.75,6,19.75z
		 M6,14.75c-0.965,0-1.75-0.785-1.75-1.75c0-0.226,0.07-0.569,0.188-0.921l1.445-2.467L2.158,1.75H0.25v-1.5h2.888l0.9,2H19
		c0.463,0,0.75,0.288,0.75,0.75c0,0.178,0,0.196-0.127,0.323l-3.642,6.556c-0.278,0.557-0.817,0.871-1.481,0.871H6.95l-1,1.888V12.7
		c0,0.34,0.21,0.55,0.45,0.55h11.35v1.5H6z"/>
	<path d="M2.977,0.5l0.768,1.705L3.877,2.5H4.2H19c0.322,0,0.5,0.178,0.5,0.5c0,0.04,0.002,0.073,0.007,0.078
		c-0.001,0-0.013,0.021-0.061,0.069l-0.05,0.05l-0.034,0.062l-3.609,6.519C15.52,10.243,15.074,10.5,14.5,10.5H7.1H6.799
		l-0.141,0.266l-0.9,1.7L5.7,12.576V12.7v0.1c0,0.38,0.32,0.7,0.7,0.7h11.1v1H6c-0.827,0-1.5-0.673-1.5-1.5
		c0-0.188,0.061-0.487,0.159-0.794l1.374-2.354l0.133-0.228L6.052,9.386l-3.6-7.6L2.316,1.5H2H0.5v-1H2.977 M16,16.5
		c0.827,0,1.5,0.673,1.5,1.5s-0.673,1.5-1.5,1.5s-1.5-0.673-1.5-1.5S15.173,16.5,16,16.5 M6,16.5c0.827,0,1.5,0.673,1.5,1.5
		S6.827,19.5,6,19.5S4.5,18.827,4.5,18S5.173,16.5,6,16.5 M3.3,0H0v2h2l3.6,7.6L4.2,12C4.1,12.3,4,12.7,4,13c0,1.1,0.9,2,2,2h12v-2
		H6.4c-0.1,0-0.2-0.1-0.2-0.2v-0.1L7.1,11h7.4c0.8,0,1.4-0.4,1.7-1l3.6-6.5C20,3.3,20,3.2,20,3c0-0.6-0.4-1-1-1H4.2L3.3,0L3.3,0z
		 M16,16c-1.1,0-2,0.9-2,2s0.9,2,2,2s2-0.9,2-2S17.1,16,16,16L16,16z M6,16c-1.1,0-2,0.9-2,2s0.9,2,2,2s2-0.9,2-2S7.1,16,6,16L6,16z
		"/>
</g>
</svg>
